<?xml version="1.0" encoding="utf-8"?>
<!-- Generator: Adobe Illustrator 15.1.0, SVG Export Plug-In . SVG Version: 6.00 Build 0)  -->
<!DOCTYPE svg PUBLIC "-//W3C//DTD SVG 1.1//EN" "http://www.w3.org/Graphics/SVG/1.1/DTD/svg11.dtd">
<svg version="1.1" id="Ebene_1" xmlns="http://www.w3.org/2000/svg" xmlns:xlink="http://www.w3.org/1999/xlink" x="0px" y="0px"
	 width="27.934px" height="31.133px" viewBox="0 0 27.934 31.133" enable-background="new 0 0 27.934 31.133" xml:space="preserve">
<g>
	<g>
		<path fill="#339900" d="M10.77,30.286c-0.518,0-5.075-0.036-5.955-1.281c-0.287-0.407-0.386-0.853-0.288-1.291
			c0.051-0.226,0.148-0.428,0.268-0.606c-0.672-0.201-1.109-0.674-1.216-1.346c-0.126-0.797,0.042-1.425,0.232-1.843
			c-0.521-0.259-1.222-0.78-1.556-1.783c-0.358-1.075,0.044-1.909,0.481-2.392c-0.483-0.727-1.421-2.354-1.251-3.861
			c0.187-1.654,0.895-2.131,1.715-2.684c0.197-0.133,0.411-0.277,0.639-0.452c1.174-0.902,4.998-1.407,5.752-1.5
			c0.059-0.034,0.116-0.083,0.13-0.111C9.488,10.054,8.617,9.009,7.775,8C6.543,6.522,5.27,4.995,6.071,3.232
			c0.648-1.427,1.98-2.385,3.316-2.385c1.317,0,2.26,0.949,2.398,2.418c0.11,1.152,1.53,2.569,3.174,4.209
			c1.901,1.896,4.261,4.248,5.493,7.166c0.388,0.244,0.86,0.358,1.471,0.358c0.521,0,1.054-0.083,1.569-0.162
			c0.465-0.072,0.904-0.14,1.297-0.14c0.26,0,1.053,0,1.43,0.715c0.596,1.132,1.54,7.313,0.38,10.001
			c-0.305,0.704-0.74,1.139-1.295,1.293c-0.622,0.172-1.25,0.256-1.921,0.256l0,0c-0.666,0-1.271-0.083-1.804-0.156
			c-0.426-0.058-0.828-0.113-1.178-0.113c-0.238,0-0.438,0.025-0.613,0.078c-0.822,0.248-1.946,0.994-3.034,1.715
			c-0.593,0.394-1.193,0.791-1.774,1.135C13.994,30.2,11.919,30.286,10.77,30.286z"/>
		<path fill="#006600" d="M9.387,1.347c0.951,0,1.772,0.618,1.901,1.966c0.271,2.83,6.537,6.199,8.76,11.658
			c0.56,0.405,1.213,0.528,1.875,0.528c1.038,0,2.101-0.302,2.866-0.302c0.456,0,0.808,0.107,0.986,0.448
			c0.674,1.281,1.819,9.906-0.606,10.58c-0.641,0.178-1.234,0.238-1.787,0.238c-1.167,0-2.145-0.27-2.981-0.27
			c-0.267,0-0.519,0.026-0.756,0.099c-1.349,0.403-3.216,1.894-4.919,2.897c-0.696,0.41-2.275,0.598-3.956,0.598
			c-2.43,0-5.068-0.393-5.546-1.069c-0.81-1.146,0.74-2.021,0.74-2.021S5.817,26.72,5.603,26.72c-0.509,0-1.389-0.133-1.53-1.034
			c-0.202-1.279,0.478-2.021,0.478-2.021s-1.348-0.271-1.818-1.685c-0.471-1.416,0.674-2.156,0.674-2.156s-1.623-2.09-1.421-3.882
			c0.202-1.792,1.007-1.907,2.162-2.795c1.154-0.888,5.593-1.41,5.593-1.41s0.559-0.231,0.472-0.674
			C9.604,8.164,5.358,6.008,6.526,3.439C7.137,2.094,8.34,1.347,9.387,1.347 M9.387,0.347L9.387,0.347
			c-1.528,0-3.043,1.076-3.771,2.679C4.685,5.074,6.123,6.798,7.391,8.319c0.679,0.815,1.378,1.653,1.703,2.49
			c-1.362,0.185-4.44,0.684-5.559,1.543c-0.219,0.168-0.424,0.306-0.613,0.434c-0.846,0.57-1.72,1.159-1.933,3.042
			c-0.167,1.484,0.592,3.015,1.134,3.892c-0.417,0.604-0.704,1.489-0.342,2.575c0.293,0.879,0.852,1.471,1.411,1.844
			c-0.138,0.45-0.215,1.022-0.108,1.701c0.106,0.669,0.473,1.192,1.027,1.516c-0.029,0.08-0.053,0.164-0.073,0.25
			c-0.091,0.403-0.101,1.024,0.368,1.688c0.978,1.385,5.118,1.493,6.363,1.493c1.2,0,3.376-0.097,4.463-0.736
			c0.597-0.352,1.208-0.757,1.798-1.149c1.057-0.7,2.149-1.426,2.9-1.651c0.127-0.039,0.28-0.058,0.469-0.058
			c0.315,0,0.684,0.051,1.109,0.109c0.551,0.075,1.174,0.161,1.873,0.161c0.717,0,1.389-0.09,2.055-0.274
			c0.486-0.136,1.164-0.52,1.621-1.578c1.236-2.862,0.242-9.215-0.397-10.432c-0.236-0.448-0.751-0.982-1.871-0.982
			c-0.431,0-0.889,0.071-1.374,0.146c-0.498,0.077-1.012,0.156-1.493,0.156c-0.443,0-0.793-0.067-1.077-0.21
			c-1.287-2.934-3.635-5.275-5.533-7.168c-1.511-1.506-2.938-2.929-3.029-3.902C12.118,1.474,10.981,0.347,9.387,0.347L9.387,0.347z
			"/>
	</g>
	<path opacity="0.3" fill="#FFFFFF" enable-background="new    " d="M19.968,14.97c-2.224-5.458-8.49-8.828-8.76-11.658
		c-0.269-2.83-3.595-2.442-4.763,0.127s3.078,4.725,3.684,7.623c0.087,0.443-0.472,0.674-0.472,0.674s-4.438,0.521-5.593,1.41
		s-1.96,1.003-2.162,2.795c-0.202,1.792,1.421,3.882,1.421,3.882S15.948,23.072,19.968,14.97z"/>
</g>
</svg>
