<?xml version="1.0" encoding="utf-8"?>
<!-- Generator: Adobe Illustrator 20.1.0, SVG Export Plug-In . SVG Version: 6.00 Build 0)  -->
<svg version="1.1" id="Ebene_1" xmlns="http://www.w3.org/2000/svg" xmlns:xlink="http://www.w3.org/1999/xlink" x="0px" y="0px"
	 viewBox="0 0 80 80" style="enable-background:new 0 0 80 80;" xml:space="preserve">
<style type="text/css">
	.st0{fill:#FFFFFF;}
	.st1{fill:none;stroke:#FFFFFF;stroke-miterlimit:10;}
</style>
<g>
	<g>
		<path class="st0" d="M54.2,26.3l-6.6-6.6L15.2,52.1l-3,16.3l16.2-3l32.4-32.4L54.2,26.3z M26.8,62.6l-11,2.1l2-11.1l29.7-29.7
			l4.5,4.5l4.5,4.5L26.8,62.6z"/>
	</g>
	<g>
		<path class="st0" d="M56.8,14.9c0.1,0,0.2,0,0.2,0.1l8.6,8.6c0.1,0.1,0.1,0.3,0,0.4l-4.6,4.6l-9-9l4.6-4.6
			C56.7,14.9,56.8,14.9,56.8,14.9 M56.8,11.9c-0.8,0-1.7,0.3-2.3,1l-6.7,6.7l13.2,13.2l6.7-6.7c1.3-1.3,1.3-3.4,0-4.7l-8.6-8.6
			C58.5,12.2,57.7,11.9,56.8,11.9L56.8,11.9z"/>
	</g>
	<g>
		<polygon class="st0" points="20.5,66.9 12.2,68.4 13.8,59.9 		"/>
	</g>
	<line class="st1" x1="23.7" y1="53.2" x2="48.7" y2="28.1"/>
	<line class="st1" x1="27.1" y1="56.6" x2="52.1" y2="31.6"/>
</g>
</svg>
