<?xml version="1.0" encoding="utf-8"?>
<!-- Generator: Adobe Illustrator 22.1.0, SVG Export Plug-In . SVG Version: 6.00 Build 0)  -->
<svg version="1.1" id="Ebene_1" xmlns="http://www.w3.org/2000/svg" xmlns:xlink="http://www.w3.org/1999/xlink" x="0px" y="0px"
	 viewBox="0 0 80 80" style="enable-background:new 0 0 80 80;" xml:space="preserve">
<style type="text/css">
	.st0{fill:#C9C9C9;fill-opacity:0;}
	.st1{fill:#89743F;}
	.st2{fill:url(#XMLID_3_);}
	.st3{fill:#6D5130;}
</style>
<g id="XMLID_1086_">
	<rect id="XMLID_1107_" x="2.4" y="2.4" class="st0" width="75.2" height="75.2"/>
	<g id="XMLID_1102_">
		<path id="XMLID_1106_" class="st1" d="M9.7,70.5c-1.8,0-3.4-0.9-4.3-2.4c-0.9-1.5-0.9-3.4,0-4.9l30.3-51.4
			c0.9-1.5,2.5-2.4,4.2-2.4c1.7,0,3.3,0.9,4.2,2.4l30.3,51.5c0.9,1.5,0.9,3.4,0,4.9c-0.9,1.5-2.5,2.4-4.2,2.4H9.7z"/>
		<path id="XMLID_1103_" class="st1" d="M40,11.8c0.9,0,1.7,0.5,2.2,1.2l30.3,51.4c0.5,0.8,0.5,1.7,0,2.5c-0.5,0.8-1.3,1.2-2.2,1.2
			H9.7c-0.9,0-1.8-0.5-2.2-1.2c-0.5-0.8-0.5-1.7,0-2.5L37.8,13C38.3,12.3,39.1,11.8,40,11.8 M40,7.1c-2.5,0-4.9,1.3-6.2,3.5
			L3.4,62.1c-1.3,2.2-1.3,5,0,7.3c1.2,2.2,3.7,3.5,6.2,3.5h60.6c2.6,0,5-1.4,6.3-3.6c1.3-2.2,1.3-5,0-7.3L46.2,10.6
			C44.9,8.5,42.5,7.1,40,7.1L40,7.1z"/>
	</g>
	
		<linearGradient id="XMLID_3_" gradientUnits="userSpaceOnUse" x1="39.9982" y1="81.9514" x2="39.9982" y2="-41.7787" gradientTransform="matrix(1 0 0 -1 0 82)">
		<stop  offset="0" style="stop-color:#FFF48D"/>
		<stop  offset="0.454" style="stop-color:#F0E16A"/>
		<stop  offset="0.9939" style="stop-color:#DBC83C"/>
	</linearGradient>
	<path id="XMLID_1101_" class="st2" d="M72.5,64.5L42.2,13c-0.5-0.8-1.3-1.2-2.2-1.2c-0.9,0-1.7,0.5-2.2,1.2L7.5,64.5
		c-0.5,0.8-0.5,1.7,0,2.5c0.5,0.8,1.3,1.2,2.2,1.2h60.6c0.9,0,1.8-0.5,2.2-1.2C73,66.2,73,65.2,72.5,64.5z"/>
	<g id="XMLID_1087_">
		<g>
			<path id="XMLID_15_" class="st3" d="M29.6,51.7l3.3-0.3c0.2,1.3,0.5,2.4,1.1,3.2c0.6,0.8,1.4,1.5,2.6,2s2.5,0.8,4,0.8
				c1.3,0,2.5-0.2,3.5-0.6c1-0.4,1.8-0.9,2.3-1.6c0.5-0.7,0.7-1.4,0.7-2.2c0-0.8-0.2-1.5-0.7-2.2c-0.5-0.6-1.3-1.1-2.4-1.5
				c-0.7-0.3-2.3-0.7-4.7-1.3c-2.4-0.6-4.1-1.1-5.1-1.6c-1.3-0.7-2.2-1.5-2.8-2.4c-0.6-1-0.9-2.1-0.9-3.3c0-1.3,0.4-2.6,1.1-3.7
				s1.8-2,3.3-2.6c1.4-0.6,3-0.9,4.8-0.9c1.9,0,3.7,0.3,5.1,0.9c1.5,0.6,2.6,1.5,3.4,2.8c0.8,1.2,1.2,2.6,1.3,4.1l-3.3,0.3
				c-0.2-1.7-0.8-2.9-1.8-3.8s-2.6-1.3-4.6-1.3c-2.1,0-3.6,0.4-4.6,1.2s-1.4,1.7-1.4,2.8c0,0.9,0.3,1.7,1,2.3
				c0.7,0.6,2.4,1.2,5.2,1.9c2.8,0.6,4.8,1.2,5.8,1.7c1.5,0.7,2.7,1.6,3.4,2.7c0.7,1.1,1.1,2.3,1.1,3.7c0,1.4-0.4,2.7-1.2,3.9
				c-0.8,1.2-1.9,2.2-3.4,2.9s-3.2,1-5,1c-2.4,0-4.4-0.3-6-1c-1.6-0.7-2.9-1.7-3.8-3.1C30.1,55,29.6,53.4,29.6,51.7z"/>
		</g>
		<g>
			<path id="XMLID_13_" class="st3" d="M29.6,51.7l3.3-0.3c0.2,1.3,0.5,2.4,1.1,3.2c0.6,0.8,1.4,1.5,2.6,2s2.5,0.8,4,0.8
				c1.3,0,2.5-0.2,3.5-0.6c1-0.4,1.8-0.9,2.3-1.6c0.5-0.7,0.7-1.4,0.7-2.2c0-0.8-0.2-1.5-0.7-2.2c-0.5-0.6-1.3-1.1-2.4-1.5
				c-0.7-0.3-2.3-0.7-4.7-1.3c-2.4-0.6-4.1-1.1-5.1-1.6c-1.3-0.7-2.2-1.5-2.8-2.4c-0.6-1-0.9-2.1-0.9-3.3c0-1.3,0.4-2.6,1.1-3.7
				s1.8-2,3.3-2.6c1.4-0.6,3-0.9,4.8-0.9c1.9,0,3.7,0.3,5.1,0.9c1.5,0.6,2.6,1.5,3.4,2.8c0.8,1.2,1.2,2.6,1.3,4.1l-3.3,0.3
				c-0.2-1.7-0.8-2.9-1.8-3.8s-2.6-1.3-4.6-1.3c-2.1,0-3.6,0.4-4.6,1.2s-1.4,1.7-1.4,2.8c0,0.9,0.3,1.7,1,2.3
				c0.7,0.6,2.4,1.2,5.2,1.9c2.8,0.6,4.8,1.2,5.8,1.7c1.5,0.7,2.7,1.6,3.4,2.7c0.7,1.1,1.1,2.3,1.1,3.7c0,1.4-0.4,2.7-1.2,3.9
				c-0.8,1.2-1.9,2.2-3.4,2.9s-3.2,1-5,1c-2.4,0-4.4-0.3-6-1c-1.6-0.7-2.9-1.7-3.8-3.1C30.1,55,29.6,53.4,29.6,51.7z"/>
		</g>
	</g>
</g>
</svg>
