<?xml version="1.0" encoding="utf-8"?>
<!-- Generator: Adobe Illustrator 15.1.0, SVG Export Plug-In . SVG Version: 6.00 Build 0)  -->
<!DOCTYPE svg PUBLIC "-//W3C//DTD SVG 1.1//EN" "http://www.w3.org/Graphics/SVG/1.1/DTD/svg11.dtd">
<svg version="1.1" id="Ebene_1" xmlns="http://www.w3.org/2000/svg" xmlns:xlink="http://www.w3.org/1999/xlink" x="0px" y="0px"
	 width="16px" height="16px" viewBox="0 0 16 16" enable-background="new 0 0 16 16" xml:space="preserve">
<g>
 <path fill="#ffffff" stroke="#000000" stroke-width="0.5" d="M8,14 L11,14 A3,3 0 0 0 14,11 L14,5 A3,1.5 90 0 0 12,5 V8 V3 A3,1.5 90 0 0 10,3 V8 V2 A3,1.5 90 0 0 8,2 V8 V3 A3,1.5 90 0 0 6,3 V9.5 L4.5,7.5 A3,1.5 60 0 0 2.5,8.5 L4,12 A6,6 0 0 0 8,14"/>
		
</g>
</svg>
