<?xml version="1.0" encoding="utf-8"?>
<!-- Generator: Adobe Illustrator 15.1.0, SVG Export Plug-In . SVG Version: 6.00 Build 0)  -->
<!DOCTYPE svg PUBLIC "-//W3C//DTD SVG 1.1//EN" "http://www.w3.org/Graphics/SVG/1.1/DTD/svg11.dtd">
<svg version="1.1" id="Ebene_1" xmlns="http://www.w3.org/2000/svg" xmlns:xlink="http://www.w3.org/1999/xlink" x="0px" y="0px"
	 width="16px" height="16px" viewBox="0 0 16 16" enable-background="new 0 0 16 16" xml:space="preserve">
<rect opacity="0" fill="#C9C9C9" width="16" height="16"/>
<g>
	<g>
		<g>
			<g>
				<path fill="#335566" d="M11,14.5c-0.13,0-0.258-0.051-0.354-0.146L7.793,11.5H1.715c-0.67,0-1.215-0.545-1.215-1.215v-7.57
					C0.5,2.045,1.045,1.5,1.715,1.5h11.57c0.67,0,1.215,0.545,1.215,1.215v7.57c0,0.67-0.545,1.215-1.215,1.215H11.5V14
					c0,0.202-0.122,0.385-0.309,0.462C11.13,14.487,11.064,14.5,11,14.5z"/>
				<g>
					<path fill="#335566" d="M13.285,2C13.68,2,14,2.32,14,2.715v7.57C14,10.682,13.68,11,13.285,11H11v3l-3-3H1.715
						C1.318,11,1,10.682,1,10.285v-7.57C1,2.32,1.318,2,1.715,2H13.285 M13.285,1H1.715C0.769,1,0,1.769,0,2.715v7.57
						C0,11.23,0.769,12,1.715,12h5.871l2.707,2.707C10.484,14.898,10.74,15,11,15c0.129,0,0.259-0.024,0.383-0.076
						C11.757,14.77,12,14.404,12,14v-2h1.285C14.23,12,15,11.23,15,10.285v-7.57C15,1.769,14.23,1,13.285,1L13.285,1z"/>
				</g>
			</g>
			<linearGradient id="SVGID_1_" gradientUnits="userSpaceOnUse" x1="7.4995" y1="7.0913" x2="7.4995" y2="25.3648">
				<stop  offset="0" style="stop-color:#9FC8D6"/>
				<stop  offset="1" style="stop-color:#6A99AA"/>
			</linearGradient>
			<path fill="url(#SVGID_1_)" d="M13.285,2H1.715C1.318,2,1,2.32,1,2.715v7.57C1,10.682,1.318,11,1.715,11H8l3,3v-3h2.285
				C13.68,11,14,10.682,14,10.285v-7.57C14,2.32,13.68,2,13.285,2z"/>
		</g>
	</g>
	<path fill="#29414F" d="M8,5.5C8,5.776,7.776,6,7.5,6h-5C2.224,6,2,5.776,2,5.5l0,0C2,5.224,2.224,5,2.5,5h5C7.776,5,8,5.224,8,5.5
		L8,5.5z"/>
	<path fill="#29414F" d="M8,8.5C8,8.776,7.776,9,7.5,9h-5C2.224,9,2,8.776,2,8.5l0,0C2,8.224,2.224,8,2.5,8h5C7.776,8,8,8.224,8,8.5
		L8,8.5z"/>
	<g>
		<g>
			<path fill="#29414F" d="M11.211,8c-0.002-0.085-0.002-0.146-0.002-0.189c0-0.25,0.031-0.467,0.094-0.648
				c0.047-0.137,0.122-0.275,0.226-0.414c0.076-0.103,0.213-0.25,0.411-0.445c0.197-0.195,0.326-0.35,0.385-0.465
				c0.06-0.116,0.09-0.242,0.09-0.379c0-0.25-0.088-0.467-0.261-0.654c-0.173-0.188-0.386-0.281-0.638-0.281
				c-0.242,0-0.445,0.085-0.609,0.256c-0.162,0.17-0.27,0.435-0.319,0.796L10,5.497c0.053-0.484,0.209-0.854,0.471-1.112
				S11.077,4,11.506,4c0.455,0,0.818,0.138,1.088,0.413C12.865,4.689,13,5.024,13,5.416c0,0.227-0.047,0.436-0.143,0.626
				s-0.281,0.425-0.559,0.698c-0.186,0.184-0.307,0.32-0.364,0.407s-0.1,0.188-0.127,0.301S11.764,7.746,11.76,8H11.211z"/>
		</g>
		<g>
			<rect x="11" y="9" fill="#29414F" width="1" height="1"/>
		</g>
	</g>
</g>
</svg>
