<?xml version="1.0" encoding="utf-8"?>
<!-- Generator: Adobe Illustrator 15.1.0, SVG Export Plug-In . SVG Version: 6.00 Build 0)  -->
<!DOCTYPE svg PUBLIC "-//W3C//DTD SVG 1.1//EN" "http://www.w3.org/Graphics/SVG/1.1/DTD/svg11.dtd">
<svg version="1.1" id="Ebene_1" xmlns="http://www.w3.org/2000/svg" xmlns:xlink="http://www.w3.org/1999/xlink" x="0px" y="0px"
	 width="16px" height="16px" viewBox="0 0 16 16" enable-background="new 0 0 16 16" xml:space="preserve">
<rect opacity="0" fill="#C9C9C9" width="16" height="16"/>
<path fill="#89743F" d="M14.364,6H8V4c0-2.206-1.794-4-4-4S0,1.794,0,4v3c0,0.553,0.447,1,1,1h1c0.553,0,1-0.447,1-1V4
	c0-0.552,0.448-1,1-1s1,0.448,1,1v2.131C4.413,6.384,4,6.977,4,7.666v5.668C4,14.253,4.733,15,5.636,15h8.729
	C15.267,15,16,14.253,16,13.334V7.666C16,6.747,15.267,6,14.364,6z"/>
<linearGradient id="SVGID_1_" gradientUnits="userSpaceOnUse" x1="10" y1="7.6421" x2="10" y2="18.1507">
	<stop  offset="0" style="stop-color:#FFF48D"/>
	<stop  offset="0.454" style="stop-color:#F0E16A"/>
	<stop  offset="0.9939" style="stop-color:#DBC83C"/>
</linearGradient>
<path fill="url(#SVGID_1_)" d="M15,13.334C15,13.701,14.713,14,14.364,14H5.636C5.283,14,5,13.701,5,13.334V7.666
	C5,7.299,5.283,7,5.636,7h8.729C14.713,7,15,7.299,15,7.666V13.334z"/>
<rect x="5" y="9" fill="#AF840B" width="10" height="1"/>
<rect x="5" y="11" fill="#AF840B" width="10" height="1"/>
<linearGradient id="SVGID_2_" gradientUnits="userSpaceOnUse" x1="4" y1="-0.125" x2="4" y2="4.0766">
	<stop  offset="0" style="stop-color:#FFF48D"/>
	<stop  offset="0.454" style="stop-color:#F0E16A"/>
	<stop  offset="0.9939" style="stop-color:#DBC83C"/>
</linearGradient>
<path fill="url(#SVGID_2_)" d="M2,7V4c0-1.104,0.896-2,2-2s2,0.896,2,2v3h1V4c0-1.656-1.344-3-3-3S1,2.344,1,4v3H2z"/>
</svg>
