<?xml version="1.0" encoding="utf-8"?>
<!-- Generator: Adobe Illustrator 15.1.0, SVG Export Plug-In . SVG Version: 6.00 Build 0)  -->
<!DOCTYPE svg PUBLIC "-//W3C//DTD SVG 1.1//EN" "http://www.w3.org/Graphics/SVG/1.1/DTD/svg11.dtd">
<svg version="1.1" id="Ebene_1" xmlns="http://www.w3.org/2000/svg" xmlns:xlink="http://www.w3.org/1999/xlink" x="0px" y="0px"
	 width="16px" height="16px" viewBox="0 0 16 16" enable-background="new 0 0 16 16" xml:space="preserve">
<g>
	<rect x="-2.002" y="0.4" fill="#C9C9C9" fill-opacity="0" width="16" height="16"/>
	<path fill="#89743F" d="M12.361,6.4H5.998c0,0-2.413-0.122-3,0.131s-1,0.846-1,1.535v5.668c0,0.919,0.733,1.666,1.636,1.666h8.729
		c0.902,0,1.635-0.747,1.635-1.666V8.066C13.998,7.147,13.266,6.4,12.361,6.4z"/>
	
		<linearGradient id="SVGID_1_" gradientUnits="userSpaceOnUse" x1="16.3574" y1="32.0117" x2="16.3574" y2="21.5031" gradientTransform="matrix(1 0 0 -1 -8.3599 40.0547)">
		<stop  offset="0" style="stop-color:#FFF48D"/>
		<stop  offset="0.454" style="stop-color:#F0E16A"/>
		<stop  offset="0.9939" style="stop-color:#DBC83C"/>
	</linearGradient>
	<path fill="url(#SVGID_1_)" d="M12.998,13.734c0,0.367-0.287,0.666-0.637,0.666H3.634c-0.353,0-0.636-0.299-0.636-0.666V8.066
		c0-0.367,0.283-0.666,0.636-0.666h8.729c0.348,0,0.635,0.299,0.635,0.666V13.734z"/>
	<rect x="2.998" y="9.4" fill="#AF840B" width="10" height="1"/>
	<rect x="2.998" y="11.4" fill="#AF840B" width="10" height="1"/>
	<g>
		<rect x="3.94" y="7.401" fill="#C9C9C9" fill-opacity="0" width="16" height="0"/>
		<path fill="#89743F" d="M11.939,7.401v-3c0-2.207-1.793-4-4-4c-2.206,0-4,1.793-4,4v3h3v-3c0-0.553,0.449-1,1-1
			c0.553,0,1,0.447,1,1v3H11.939z"/>
		
			<linearGradient id="SVGID_2_" gradientUnits="userSpaceOnUse" x1="16.2988" y1="39.7793" x2="16.2988" y2="35.5777" gradientTransform="matrix(1 0 0 -1 -8.3599 40.0547)">
			<stop  offset="0" style="stop-color:#FFF48D"/>
			<stop  offset="0.454" style="stop-color:#F0E16A"/>
			<stop  offset="0.9939" style="stop-color:#DBC83C"/>
		</linearGradient>
		<path fill="url(#SVGID_2_)" d="M5.94,7.401v-3c0-1.104,0.896-2,2-2c1.105,0,2,0.896,2,2v3h1v-3c0-1.656-1.344-3-3-3
			c-1.655,0-3,1.344-3,3v3H5.94z"/>
	</g>
</g>
</svg>
