<?xml version="1.0" encoding="utf-8"?>
<!-- Generator: Adobe Illustrator 20.0.0, SVG Export Plug-In . SVG Version: 6.00 Build 0)  -->
<!DOCTYPE svg PUBLIC "-//W3C//DTD SVG 1.1//EN" "http://www.w3.org/Graphics/SVG/1.1/DTD/svg11.dtd" [
	<!ENTITY ns_extend "http://ns.adobe.com/Extensibility/1.0/">
	<!ENTITY ns_ai "http://ns.adobe.com/AdobeIllustrator/10.0/">
	<!ENTITY ns_graphs "http://ns.adobe.com/Graphs/1.0/">
	<!ENTITY ns_vars "http://ns.adobe.com/Variables/1.0/">
	<!ENTITY ns_imrep "http://ns.adobe.com/ImageReplacement/1.0/">
	<!ENTITY ns_sfw "http://ns.adobe.com/SaveForWeb/1.0/">
	<!ENTITY ns_custom "http://ns.adobe.com/GenericCustomNamespace/1.0/">
	<!ENTITY ns_adobe_xpath "http://ns.adobe.com/XPath/1.0/">
]>
<svg version="1.1" id="Ebene_1" xmlns:x="&ns_extend;" xmlns:i="&ns_ai;" xmlns:graph="&ns_graphs;"
	 xmlns="http://www.w3.org/2000/svg" xmlns:xlink="http://www.w3.org/1999/xlink" x="0px" y="0px" viewBox="0 0 80 80"
	 style="enable-background:new 0 0 80 80;" xml:space="preserve">
<style type="text/css">
	.st0{fill:url(#SVGID_1_);stroke:#706F6F;stroke-miterlimit:10;}
	.st1{fill:#73A0B1;}
	.st2{fill:#3B5766;}
</style>
<metadata>
	<sfw  xmlns="&ns_sfw;">
		<slices></slices>
		<sliceSourceBounds  bottomLeftOrigin="true" height="67.7" width="67.9" x="6.5" y="-73.3"></sliceSourceBounds>
	</sfw>
</metadata>
<g>
	
		<image style="overflow:visible;opacity:0.3;" width="283" height="282" xlink:href="78BEE14E.png"  transform="matrix(0.24 0 0 0.24 6.5082 5.5938)">
	</image>
	<g>
		<g>
			<linearGradient id="SVGID_1_" gradientUnits="userSpaceOnUse" x1="9.0082" y1="37.1574" x2="66.3517" y2="37.1574">
				<stop  offset="0" style="stop-color:#FFFFFF"/>
				<stop  offset="1" style="stop-color:#CCCCCC"/>
			</linearGradient>
			<path class="st0" d="M55.6,64.6c2.1,1.2,7.8,2.5,9.5,0.9c1.9-1.7,1.3-8.1,0-10.3C56.9,47.5,37.3,29,37.3,29s2.1-8.9,0.9-11.5
				c-1.8-3.8-9.9-10.1-14-9.3c-1,0.2-2.9,1.2-2.9,2.9c-0.1,1.8,8.2,8.5,8.2,8.5l-1.8,7.5L20,26.7c0,0-5.7-6.3-7.3-6.2
				s-3.2,1.8-3.5,2.9c-1,3.5,3.6,11,6.8,12.9c2.2,1.3,12,1.5,12,1.5S48.2,57.8,55.6,64.6z"/>
			<g>
				<g>
					<polygon class="st1" points="28.9,48.1 60.5,15.3 61.8,12.2 64.6,9.3 69.6,14.1 66.8,17.1 63.8,18.5 32.1,51.2 					"/>
					<path class="st2" d="M64.6,10l4.3,4.2l-2.4,2.5L63.7,18L63.5,18l-0.1,0.1L32.1,50.5l-2.6-2.5l31.2-32.4l0.1-0.1l0.1-0.2
						l1.2-2.9L64.6,10 M64.6,8.6L61.3,12L60.1,15L28.2,48.1l4,3.9l31.9-33.1l3-1.4l3.3-3.4L64.6,8.6L64.6,8.6z"/>
				</g>
				<g>
					<path class="st1" d="M22.4,68.5c-3,0-8.9-5.5-9-8.4c-0.3-2.5,10.3-11.9,17.1-17.2l0.3-0.2l-0.1-0.3c-0.4-1.4-0.8-3.7-0.4-4.3
						c0.5-0.7,3.2-2.1,4.6-2.1c0.3,0,0.4,0.1,0.5,0.1c0.5,0.4,0.7,1.2,0.8,2c0.1,0.6,0.3,1.2,0.5,1.6c0.4,0.6,1.5,1.8,2.4,2.2
						c0.6,0.3,1.4,0.3,2.3,0.3c0.9,0,2.1,0.1,2.4,0.4c0.6,0.6,0.2,4.6-0.7,5.7c-0.3,0.4-0.9,0.6-1.9,0.6c-0.8,0-1.6-0.1-1.6-0.1
						l-0.3-0.1l-0.2,0.3C34,56.5,24.9,68.5,22.6,68.5L22.4,68.5z"/>
					<path class="st2" d="M34.8,36.5c0.1,0,0.2,0,0.2,0c0.3,0.3,0.5,1.1,0.6,1.7c0.1,0.7,0.3,1.3,0.6,1.8c0.4,0.6,1.6,1.9,2.6,2.3
						c0.7,0.3,1.6,0.3,2.5,0.3c0.6,0,1.8,0.1,2.1,0.2c0.4,0.6,0,4.1-0.7,5.1c-0.1,0.1-0.5,0.3-1.5,0.3c-0.8,0-1.5-0.1-1.5-0.1
						l-0.6-0.1l-0.4,0.5C32.4,57.8,24.5,67.9,22.6,68l-0.1,0l-0.1,0c0,0-0.1,0-0.1,0c-2.8,0-8.4-5.3-8.5-7.9l0,0l0,0
						c0-0.2,0-2,8.1-9.3c4.3-3.9,8.7-7.4,8.8-7.4l0.5-0.4l-0.2-0.7c-0.5-1.6-0.7-3.5-0.5-3.9C31,37.8,33.5,36.5,34.8,36.5
						 M34.8,35.5c-1.6,0-4.4,1.4-5,2.3c-0.7,1.1,0.4,4.7,0.4,4.7s-17.8,14-17.3,17.6c0.1,3.2,6.2,8.9,9.5,8.9c0.1,0,0.1,0,0.2,0
						c0,0,0,0,0,0c3.4,0,17-19.9,17-19.9s0.8,0.2,1.7,0.2c0.9,0,1.9-0.2,2.3-0.8c0.9-1.2,1.5-5.5,0.6-6.3c-0.9-0.9-3.7-0.3-4.9-0.8
						c-0.7-0.3-1.8-1.4-2.2-2c-0.6-0.8-0.4-2.9-1.5-3.7C35.4,35.5,35.1,35.5,34.8,35.5L34.8,35.5z"/>
				</g>
			</g>
		</g>
	</g>
</g>
</svg>
